<svg id="Layer_1" data-name="Layer 1" xmlns="http://www.w3.org/2000/svg" viewBox="0 0 512 512"><defs><style>.cls-1{fill:#ffc942;stroke:#ffc942;stroke-miterlimit:10;}</style></defs><path class="cls-1" d="M82.2,21.89c-17.46,0-33.33,6.35-45.23,18.25a63.23,63.23,0,0,0,0,90.47c11.9,11.91,28.57,19,44.44,18.25H83c15.87,0,31-6.34,42.85-18.25A63.63,63.63,0,0,0,144.9,85.38c.79-16.67-6.35-32.54-18.26-44.45A60.07,60.07,0,0,0,82.2,21.89Zm32.54,97.61C106,128.23,94.11,133.79,81.41,133c-11.9,0-24.6-4.76-33.33-13.49-9.53-8.73-14.29-21.43-14.29-34.12A47.44,47.44,0,0,1,48.08,51.25c8.73-8.73,20.63-13.49,34.12-13.49a46.3,46.3,0,0,1,32.54,13.49A47.47,47.47,0,0,1,129,85.38C129,98.07,124.26,110.77,114.74,119.5Z"/><path class="cls-1" d="M113.15,164.74H48.87c-12.7,0-23,10.31-23,23.8V466.3c0,12.7,11.11,23.81,23.8,23.81h63.49c12.7,0,23.81-11.11,23.81-23V188.54C137,175.85,125.85,164.74,113.15,164.74Zm7.94,302.36c0,4-4,7.14-7.94,7.14H49.66c-4,0-7.93-4-7.93-7.94V188.54c0-4,3.17-7.93,7.14-7.93h64.28c4,0,7.94,4,7.94,7.93Z"/><path class="cls-1" d="M383,156.8H366.31c-30.95,0-60.31,13.49-79.36,34.92V180.61c0-7.94-7.94-15.87-15.87-15.87H191.72c-7.14,0-15.87,6.34-15.87,15.07v296c0,8.72,8.73,14.28,15.87,14.28H279c7.15,0,15.88-5.56,15.88-14.28V304.41c0-26.19,19-46.82,43.64-46.82a46.79,46.79,0,0,1,33.34,13.49c7.93,7.14,11.11,18.25,11.11,32.53V474.24c0,7.93,7.93,15.87,15.87,15.87h79.36c7.93,0,15.87-7.93,15.87-15.87V269.49C494.08,206,445.67,156.8,383,156.8Zm95.23,316.65-.8.79H399.64l-.79-170.62c0-19.05-4.76-33.34-15.08-43.65a62.39,62.39,0,0,0-44.44-18.25c-33.33.79-59.52,27.77-59.52,62.69V474.24h-87.3V180.61h78.57l.79.79v50L293.3,210l.79-.79c15.87-22.22,43.65-36.51,73-36.51h16.67c53.17,0,94.44,42.86,94.44,96.82Z"/></svg>